<svg width="32" height="32" viewBox="0 0 32 32" fill="none" xmlns="http://www.w3.org/2000/svg">
<path d="M16 4C13.6266 4 11.3066 4.70379 9.33316 6.02236C7.35977 7.34094 5.8217 9.21508 4.91345 11.4078C4.0052 13.6005 3.76756 16.0133 4.23058 18.3411C4.6936 20.6689 5.83649 22.807 7.51472 24.4853C9.19295 26.1635 11.3311 27.3064 13.6589 27.7694C15.9867 28.2324 18.3995 27.9948 20.5922 27.0865C22.7849 26.1783 24.6591 24.6402 25.9776 22.6668C27.2962 20.6935 28 18.3734 28 16C27.9966 12.8185 26.7312 9.76821 24.4815 7.51852C22.2318 5.26883 19.1815 4.00344 16 4V4ZM16 26C14.0222 26 12.0888 25.4135 10.4443 24.3147C8.79981 23.2159 7.51809 21.6541 6.76121 19.8268C6.00433 17.9996 5.8063 15.9889 6.19215 14.0491C6.578 12.1093 7.53041 10.3275 8.92894 8.92893C10.3275 7.53041 12.1093 6.578 14.0491 6.19215C15.9889 5.80629 17.9996 6.00433 19.8268 6.7612C21.6541 7.51808 23.2159 8.79981 24.3147 10.4443C25.4135 12.0888 26 14.0222 26 16C25.9971 18.6513 24.9426 21.1931 23.0679 23.0678C21.1931 24.9426 18.6513 25.9971 16 26Z" fill="white"/>
<path d="M16 14H15C14.7348 14 14.4804 14.1054 14.2929 14.2929C14.1054 14.4804 14 14.7348 14 15C14 15.2652 14.1054 15.5196 14.2929 15.7071C14.4804 15.8946 14.7348 16 15 16H16V22C16 22.2652 16.1054 22.5196 16.2929 22.7071C16.4804 22.8946 16.7348 23 17 23C17.2652 23 17.5196 22.8946 17.7071 22.7071C17.8946 22.5196 18 22.2652 18 22V16C18 15.4696 17.7893 14.9609 17.4142 14.5858C17.0391 14.2107 16.5304 14 16 14Z" fill="white"/>
<path d="M16 12C16.8284 12 17.5 11.3284 17.5 10.5C17.5 9.67157 16.8284 9 16 9C15.1716 9 14.5 9.67157 14.5 10.5C14.5 11.3284 15.1716 12 16 12Z" fill="white"/>
</svg>
