<svg width="32" height="32" viewBox="0 0 32 32" fill="none" xmlns="http://www.w3.org/2000/svg">
<path d="M18.2231 10.5213C19.0466 9.85927 19.8966 8.96961 20.3264 7.88822C20.5511 7.32344 20.4803 6.68311 20.1346 6.17311C19.7786 5.64705 19.1883 5.3335 18.5555 5.3335H12.8889C12.2561 5.3335 11.6658 5.648 11.3098 6.17311C10.9641 6.68311 10.8933 7.32344 11.1171 7.88633C11.5478 8.96866 12.3968 9.85927 13.2213 10.5204C8.82304 12.1533 5.33331 17.7614 5.33331 22.3335C5.33331 25.4587 7.87481 28.0002 11 28.0002H20.4444C23.5696 28.0002 26.1111 25.4587 26.1111 22.3335C26.1111 17.7614 22.6214 12.1533 18.2231 10.5213ZM18.5706 7.18933C18.0843 8.41333 16.593 9.44939 15.7203 9.93766C14.8486 9.45316 13.3639 8.42655 12.8879 7.22239L18.5706 7.18933ZM20.4435 26.1113H11C8.91654 26.1113 7.2222 24.4169 7.2222 22.3335C7.2222 17.3818 11.6705 11.9446 15.7222 11.9446C19.7739 11.9446 24.2222 17.3818 24.2222 22.3335C24.2222 24.4169 22.5269 26.1113 20.4435 26.1113Z" fill="white"/>
</svg>
