<svg width="32" height="32" viewBox="0 0 32 32" fill="none" xmlns="http://www.w3.org/2000/svg">
<path d="M16.6667 5.3335C14.4251 5.3335 12.234 5.99818 10.3702 7.24351C8.50645 8.48883 7.05382 10.2589 6.19603 12.3298C5.33824 14.4006 5.1138 16.6794 5.5511 18.8779C5.9884 21.0763 7.06779 23.0957 8.65279 24.6807C10.2378 26.2657 12.2572 27.3451 14.4556 27.7824C16.6541 28.2197 18.9328 27.9953 21.0037 27.1375C23.0746 26.2797 24.8447 24.827 26.09 22.9633C27.3353 21.0995 28 18.9083 28 16.6668C27.9967 13.662 26.8017 10.7812 24.677 8.65654C22.5522 6.53183 19.6715 5.33675 16.6667 5.3335ZM16.6667 26.1113C14.7987 26.1113 12.9727 25.5574 11.4196 24.5196C9.86648 23.4818 8.65597 22.0068 7.94114 20.2811C7.22631 18.5553 7.03928 16.6564 7.40369 14.8243C7.76811 12.9923 8.66761 11.3094 9.98844 9.9886C11.3093 8.66777 12.9921 7.76827 14.8241 7.40386C16.6562 7.03944 18.5552 7.22647 20.2809 7.9413C22.0066 8.65613 23.4817 9.86665 24.5194 11.4198C25.5572 12.9729 26.1111 14.7989 26.1111 16.6668C26.1084 19.1708 25.1124 21.5714 23.3419 23.342C21.5713 25.1126 19.1706 26.1085 16.6667 26.1113ZM21.3889 16.6668C21.3889 16.9173 21.2894 17.1575 21.1123 17.3347C20.9351 17.5118 20.6949 17.6113 20.4444 17.6113H17.6111V20.4446C17.6111 20.6951 17.5116 20.9353 17.3345 21.1124C17.1574 21.2895 16.9171 21.389 16.6667 21.389C16.4162 21.389 16.176 21.2895 15.9988 21.1124C15.8217 20.9353 15.7222 20.6951 15.7222 20.4446V17.6113H12.8889C12.6384 17.6113 12.3982 17.5118 12.2211 17.3347C12.0439 17.1575 11.9444 16.9173 11.9444 16.6668C11.9444 16.4163 12.0439 16.1761 12.2211 15.999C12.3982 15.8219 12.6384 15.7224 12.8889 15.7224H15.7222V12.8891C15.7222 12.6386 15.8217 12.3983 15.9988 12.2212C16.176 12.0441 16.4162 11.9446 16.6667 11.9446C16.9171 11.9446 17.1574 12.0441 17.3345 12.2212C17.5116 12.3983 17.6111 12.6386 17.6111 12.8891V15.7224H20.4444C20.6949 15.7224 20.9351 15.8219 21.1123 15.999C21.2894 16.1761 21.3889 16.4163 21.3889 16.6668Z" fill="white"/>
</svg>
