<svg width="24" height="24" viewBox="0 0 24 24" fill="none" xmlns="http://www.w3.org/2000/svg">
<path d="M12.8256 11.5L18.7253 5.60086C19.0916 5.23463 19.0916 4.64087 18.7253 4.27467C18.3591 3.90844 17.7653 3.90844 17.3991 4.27467L11.5 10.1744L5.60086 4.27467C5.23463 3.90844 4.64087 3.90844 4.27467 4.27467C3.90847 4.64089 3.90844 5.23466 4.27467 5.60086L10.1744 11.5L4.27467 17.3991C3.90844 17.7654 3.90844 18.3591 4.27467 18.7253C4.64089 19.0915 5.23466 19.0916 5.60086 18.7253L11.5 12.8256L17.3991 18.7253C17.7653 19.0916 18.3591 19.0916 18.7253 18.7253C19.0915 18.3591 19.0915 17.7653 18.7253 17.3991L12.8256 11.5Z" fill="white"/>
</svg>
