<svg width="17" height="14" viewBox="0 0 17 14" fill="none" xmlns="http://www.w3.org/2000/svg">
<path fillRule="evenodd" clipRule="evenodd" d="M5.74658 0.506651C5.69884 0.499127 5.65032 0.497981 5.60229 0.503242C4.6468 0.60663 3.19255 1.12243 2.33364 1.58825C2.27691 1.61919 2.22613 1.65997 2.18367 1.70868C1.82693 2.11655 1.50313 2.78118 1.24977 3.4106C0.988462 4.05592 0.772598 4.7376 0.651032 5.23068C0.248842 6.83262 0.0295684 8.75609 2.90523e-05 10.5807C-0.000910708 10.6718 0.0209622 10.7616 0.0636523 10.842C0.404491 11.493 1.13957 12.0963 1.87578 12.5371C2.61995 12.9836 3.48908 13.3358 4.18894 13.404C4.27279 13.412 4.35736 13.4005 4.43601 13.3703C4.51466 13.3402 4.58525 13.2922 4.64226 13.2302C4.81722 13.0404 5.11489 12.5973 5.33984 12.2531C5.44209 12.0963 5.53866 11.9463 5.61365 11.8271C6.36577 11.9634 7.30875 12.0429 8.50169 12.0429C9.69236 12.0429 10.6353 11.9634 11.3875 11.8271C11.4624 11.9475 11.5579 12.0963 11.6601 12.252C11.8851 12.5973 12.1828 13.0404 12.3589 13.2302C12.4159 13.2922 12.4865 13.3402 12.5651 13.3703C12.6437 13.4005 12.7283 13.412 12.8122 13.404C13.512 13.3358 14.38 12.9836 15.1242 12.5371C15.8604 12.0963 16.5955 11.493 16.9375 10.842C16.9798 10.7615 17.0012 10.6717 16.9999 10.5807C16.9715 8.75609 16.7511 6.83149 16.3512 5.22954C16.1905 4.61084 15.9898 4.00325 15.7502 3.4106C15.4968 2.78118 15.173 2.11541 14.8174 1.70868C14.7746 1.65986 14.7235 1.61908 14.6663 1.58825C13.8086 1.12243 12.3543 0.60663 11.3977 0.503242C11.35 0.498082 11.3019 0.499228 11.2545 0.506651C11.0404 0.547859 10.8396 0.640674 10.6694 0.77705C10.2883 1.08384 9.9802 1.47153 9.76734 1.91204C9.34627 1.87902 8.92406 1.86272 8.50169 1.86319C8.04497 1.86319 7.62233 1.88023 7.23263 1.91091C7.01964 1.4708 6.71152 1.08352 6.33055 0.77705C6.16073 0.640841 5.9603 0.548034 5.74658 0.506651ZM12.4986 11.5407C12.6585 11.787 12.8225 12.0305 12.9905 12.2713C13.4404 12.169 14.0142 11.9304 14.5641 11.601C15.181 11.2317 15.6707 10.8057 15.907 10.4455C15.8695 8.73451 15.6582 6.9576 15.2935 5.49426C15.1449 4.92432 14.9597 4.36456 14.739 3.81847C14.5118 3.25268 14.2676 2.77323 14.0551 2.49829C13.3166 2.11541 12.1521 1.71095 11.3931 1.60074C11.3703 1.6146 11.3483 1.62977 11.3272 1.64619C11.2331 1.72025 11.147 1.80403 11.0705 1.89614C11.0257 1.94947 10.9829 2.00442 10.9421 2.06088C11.2886 2.1245 11.5976 2.20062 11.8715 2.28469C12.6486 2.52328 13.2087 2.85276 13.4825 3.21746C13.5693 3.33316 13.6065 3.47861 13.5861 3.62179C13.5656 3.76497 13.4891 3.89416 13.3734 3.98094C13.3161 4.02391 13.2509 4.05517 13.1816 4.07294C13.1122 4.09072 13.04 4.09465 12.9691 4.08452C12.8259 4.06407 12.6967 3.98758 12.6099 3.87187C12.5429 3.78325 12.2509 3.54239 11.5511 3.32653C10.8751 3.11975 9.88095 2.95388 8.50169 2.95388C7.12243 2.95388 6.12718 3.11975 5.45232 3.32766C4.75246 3.54353 4.46048 3.78211 4.39344 3.87187C4.35048 3.92916 4.29664 3.97743 4.23502 4.01392C4.1734 4.0504 4.10519 4.0744 4.03429 4.08452C3.89111 4.10498 3.74567 4.06772 3.62996 3.98094C3.57267 3.93797 3.5244 3.88413 3.48792 3.82251C3.45143 3.76089 3.42744 3.69268 3.41731 3.62179C3.39685 3.47861 3.43412 3.33316 3.5209 3.21746C3.7947 2.85162 4.35482 2.52442 5.13193 2.28583C5.4046 2.20062 5.71363 2.12564 6.05901 2.06201C6.01817 2.00494 5.97496 1.9496 5.92949 1.89614C5.85328 1.80409 5.7676 1.72031 5.67386 1.64619C5.65243 1.62973 5.63005 1.61456 5.60683 1.60074C4.84903 1.71095 3.6845 2.11541 2.94601 2.49829C2.73242 2.77437 2.48929 3.25268 2.26093 3.81847C2.01893 4.42062 1.81784 5.05344 1.70763 5.49426C1.3418 6.9576 1.13048 8.73451 1.09412 10.4455C1.33044 10.8068 1.81897 11.2317 2.43589 11.6021C2.98692 11.9316 3.55953 12.1702 4.01057 12.2713C4.18031 12.0317 4.34434 11.7881 4.50251 11.5407C3.61065 11.2238 3.13234 10.7886 2.82104 10.3228C2.78135 10.2631 2.75381 10.1962 2.73998 10.1259C2.72616 10.0556 2.72631 9.98322 2.74045 9.91295C2.75459 9.84269 2.78243 9.7759 2.82238 9.7164C2.86232 9.65689 2.9136 9.60584 2.97328 9.56615C3.03296 9.52647 3.09987 9.49892 3.1702 9.4851C3.24052 9.47127 3.31288 9.47143 3.38314 9.48556C3.45341 9.4997 3.5202 9.52754 3.5797 9.56749C3.6392 9.60744 3.69026 9.65871 3.72994 9.71839C4.02534 10.1638 4.80245 10.9522 8.50169 10.9522C12.2021 10.9522 12.978 10.1638 13.2734 9.71839C13.3536 9.59787 13.4783 9.51411 13.6202 9.48556C13.7621 9.45701 13.9096 9.486 14.0301 9.56615C14.1506 9.6463 14.2344 9.77105 14.2629 9.91295C14.2915 10.0549 14.2625 10.2023 14.1823 10.3228C13.871 10.7886 13.3916 11.2249 12.4986 11.5407ZM4.61613 6.39862C4.89334 6.10096 5.2694 5.93281 5.66137 5.93054C6.05333 5.93281 6.42939 6.10096 6.70661 6.39862C6.98269 6.69742 7.13834 7.10075 7.13834 7.52112C7.13834 7.94149 6.98269 8.34481 6.70661 8.64362C6.42939 8.94128 6.05333 9.10943 5.66137 9.1117C5.46434 9.10962 5.26985 9.06699 5.09002 8.98646C4.91019 8.90592 4.74888 8.78922 4.61613 8.64362C4.33619 8.33705 4.18204 7.93626 4.1844 7.52112C4.1844 7.10075 4.34005 6.69742 4.61613 6.39862ZM11.342 5.93054C10.9501 5.93281 10.574 6.10096 10.2968 6.39862C10.0207 6.69742 9.86505 7.10075 9.86505 7.52112C9.86505 7.94149 10.0207 8.34481 10.2968 8.64362C10.574 8.94128 10.9501 9.10943 11.342 9.1117C11.734 9.10943 12.11 8.94128 12.3873 8.64362C12.6633 8.34481 12.819 7.94149 12.819 7.52112C12.819 7.10075 12.6633 6.69742 12.3873 6.39862C12.2545 6.25302 12.0932 6.13631 11.9134 6.05578C11.7335 5.97525 11.539 5.93261 11.342 5.93054Z" fill="url(#paint0_linear_590_393)"/>
<defs>
<linearGradient id="paint0_linear_590_393" x1="3.68333" y1="0.5" x2="10.088" y2="14.9618" gradientUnits="userSpaceOnUse">
<stop stopColor="#03E7D9"/>
<stop offset="1" stopColor="#C9C9C9"/>
</linearGradient>
</defs>
</svg>
