<svg width="17" height="17" viewBox="0 0 17 17" fill="none" xmlns="http://www.w3.org/2000/svg">
<path d="M13.4583 0.5H3.54167C2.6027 0.501125 1.70252 0.874625 1.03857 1.53857C0.374625 2.20252 0.00112473 3.1027 0 4.04167L0 12.5417C0.00112473 13.4806 0.374625 14.3808 1.03857 15.0448C1.70252 15.7087 2.6027 16.0822 3.54167 16.0833H13.4583C14.3973 16.0822 15.2975 15.7087 15.9614 15.0448C16.6254 14.3808 16.9989 13.4806 17 12.5417V4.04167C16.9989 3.1027 16.6254 2.20252 15.9614 1.53857C15.2975 0.874625 14.3973 0.501125 13.4583 0.5ZM3.54167 1.91667H13.4583C13.8825 1.9175 14.2967 2.04524 14.6476 2.28344C14.9985 2.52165 15.2701 2.85942 15.4275 3.25329L10.0031 8.67842C9.60389 9.07601 9.06342 9.29925 8.5 9.29925C7.93658 9.29925 7.39611 9.07601 6.99692 8.67842L1.5725 3.25329C1.72986 2.85942 2.00148 2.52165 2.35241 2.28344C2.70334 2.04524 3.11753 1.9175 3.54167 1.91667ZM13.4583 14.6667H3.54167C2.97808 14.6667 2.43758 14.4428 2.03906 14.0443C1.64055 13.6458 1.41667 13.1053 1.41667 12.5417V5.10417L5.99533 9.68C6.66019 10.3432 7.56093 10.7156 8.5 10.7156C9.43907 10.7156 10.3398 10.3432 11.0047 9.68L15.5833 5.10417V12.5417C15.5833 13.1053 15.3595 13.6458 14.9609 14.0443C14.5624 14.4428 14.0219 14.6667 13.4583 14.6667Z" fill="url(#paint0_linear_590_171)"/>
<defs>
<linearGradient id="paint0_linear_590_171" x1="3.68333" y1="0.5" x2="12.3683" y2="16.742" gradientUnits="userSpaceOnUse">
<stop stopColor="#03E7D9"/>
<stop offset="1" stopColor="#C9C9C9"/>
</linearGradient>
</defs>
</svg>
