<svg width="17" height="16" viewBox="0 0 17 16" fill="none" xmlns="http://www.w3.org/2000/svg">
<path d="M16.4086 1.06679L16.9753 1.02939C16.9679 0.918148 16.9279 0.811545 16.8603 0.722929C16.7926 0.634314 16.7003 0.567624 16.5949 0.531209C16.4896 0.494794 16.3758 0.490272 16.2679 0.51821C16.1599 0.546147 16.0626 0.605302 15.9882 0.688269L16.4086 1.06679ZM15.8442 4.42023C15.8442 4.26995 15.7845 4.12582 15.6783 4.01955C15.572 3.91328 15.4279 3.85358 15.2776 3.85358C15.1273 3.85358 14.9832 3.91328 14.8769 4.01955C14.7706 4.12582 14.7109 4.26995 14.7109 4.42023H15.8442ZM0.567345 13.5331V12.9665C0.445673 12.9663 0.327184 13.0053 0.229407 13.0777C0.13163 13.1502 0.0597571 13.2521 0.0244219 13.3685C-0.0109133 13.485 -0.00783457 13.6097 0.0332027 13.7242C0.0742399 13.8388 0.151056 13.9371 0.252287 14.0046L0.567345 13.5331ZM1.69838 1.06679L2.2299 0.868464C2.19127 0.765003 2.12326 0.675083 2.03421 0.609759C1.94517 0.544436 1.83897 0.506556 1.72869 0.500777C1.6184 0.494997 1.50883 0.521571 1.41345 0.57723C1.31806 0.632889 1.24102 0.715208 1.19179 0.814066L1.69838 1.06679ZM6.22478 11.2665L6.62597 11.6666C6.69404 11.5983 6.74356 11.5138 6.76984 11.421C6.79613 11.3282 6.79831 11.2303 6.77618 11.1365C6.75406 11.0426 6.70835 10.956 6.6434 10.8847C6.57844 10.8135 6.49638 10.76 6.40498 10.7293L6.22478 11.2665ZM14.4118 2.16949L13.9924 2.55028L14.1964 2.77581L14.4968 2.73048L14.4118 2.16949ZM15.8442 1.10419C15.902 1.9859 15.8476 2.52082 15.7049 2.92427C15.5666 3.31526 15.3241 3.63712 14.8855 4.05757L15.6697 4.87582C16.1661 4.39983 16.5492 3.93291 16.7736 3.3028C16.9923 2.68401 17.0376 1.96777 16.9753 1.02939L15.8442 1.10419ZM15.8442 5.24527V4.42023H14.7109V5.24641H15.8442V5.24527ZM7.92247 4.51316V5.6H9.05577V4.51316H7.92247ZM7.92247 5.6V6.16665H9.05577V5.6H7.92247ZM11.9287 0.500141C11.402 0.500439 10.8805 0.604475 10.394 0.806309C9.90752 1.00814 9.46555 1.30382 9.09332 1.67647C8.7211 2.04911 8.42592 2.49142 8.22464 2.97814C8.02335 3.46486 7.91991 3.98646 7.9202 4.51316H9.0535C9.05321 4.13519 9.12738 3.76087 9.27178 3.41157C9.41618 3.06228 9.62798 2.74485 9.89509 2.47743C10.1622 2.21001 10.4794 1.99783 10.8285 1.85302C11.1776 1.7082 11.5519 1.63359 11.9298 1.63344V0.500141H11.9287ZM14.7098 5.24527C14.7109 10.1366 10.7523 14.0998 5.87119 14.0998V15.2331C11.379 15.2331 15.8442 10.7611 15.8442 5.24527H14.7098ZM1.16799 1.26512C1.78451 2.91067 4.09645 6.16665 8.48912 6.16665V5.03335C4.73109 5.03335 2.74442 2.24543 2.22876 0.868464L1.16799 1.26512ZM1.19179 0.814066C0.00522756 3.18947 -0.177234 5.4946 0.685208 7.45748C1.54538 9.41469 3.39606 10.9197 6.04572 11.8037L6.40498 10.7293C3.96272 9.91334 2.41803 8.58511 1.72218 7.00076C1.0286 5.42207 1.12946 3.47619 2.2061 1.31952L1.19179 0.814066ZM5.8236 10.8664C5.14135 11.5498 3.09007 12.9665 0.567345 12.9665V14.0998C3.4754 14.0998 5.7998 12.495 6.62597 11.6666L5.8236 10.8664ZM14.8322 1.78984C14.4658 1.3835 14.0181 1.0587 13.5181 0.836524C13.0181 0.614345 12.477 0.49974 11.9298 0.500141V1.63344C12.7469 1.63344 13.4824 1.9859 13.9924 2.55028L14.8322 1.78984ZM14.4968 2.73048C15.3995 2.583 16.2239 2.12917 16.8314 1.44531L15.9882 0.688269C15.5561 1.17643 14.9697 1.50164 14.3268 1.60964L14.4968 2.73048ZM0.252287 14.0046C2.11203 15.2444 4.06131 15.2331 5.87119 15.2331V14.0998C4.02391 14.0998 2.41689 14.0873 0.882403 13.0617L0.252287 14.0046Z" fill="url(#paint0_linear_590_302)"/>
<defs>
<linearGradient id="paint0_linear_590_302" x1="3.68333" y1="0.5" x2="11.634" y2="16.2269" gradientUnits="userSpaceOnUse">
<stop stopColor="#03E7D9"/>
<stop offset="1" stopColor="#C9C9C9"/>
</linearGradient>
</defs>
</svg>
