<svg width="24" height="24" viewBox="0 0 24 24" fill="none" xmlns="http://www.w3.org/2000/svg">
<path d="M17.4583 4H7.54167C5.58879 4 4 5.58879 4 7.54167V16.0417C4 17.9945 5.58879 19.5833 7.54167 19.5833H17.4583C19.4112 19.5833 21 17.9945 21 16.0417V7.54167C21 5.58879 19.4112 4 17.4583 4ZM19.5833 16.0417C19.5833 17.2132 18.6299 18.1667 17.4583 18.1667H7.54167C6.37008 18.1667 5.41667 17.2132 5.41667 16.0417V7.54167C5.41667 6.37008 6.37008 5.41667 7.54167 5.41667H17.4583C18.6299 5.41667 19.5833 6.37008 19.5833 7.54167V16.0417ZM17.4583 8.25C17.4583 8.641 17.141 8.95833 16.75 8.95833H11.7917C11.4007 8.95833 11.0833 8.641 11.0833 8.25C11.0833 7.859 11.4007 7.54167 11.7917 7.54167H16.75C17.141 7.54167 17.4583 7.859 17.4583 8.25ZM9.66667 8.25C9.66667 8.8365 9.19067 9.3125 8.60417 9.3125C8.01767 9.3125 7.54167 8.8365 7.54167 8.25C7.54167 7.6635 8.01767 7.1875 8.60417 7.1875C9.19067 7.1875 9.66667 7.6635 9.66667 8.25ZM17.4583 11.7917C17.4583 12.1827 17.141 12.5 16.75 12.5H11.7917C11.4007 12.5 11.0833 12.1827 11.0833 11.7917C11.0833 11.4007 11.4007 11.0833 11.7917 11.0833H16.75C17.141 11.0833 17.4583 11.4007 17.4583 11.7917ZM9.66667 11.7917C9.66667 12.3782 9.19067 12.8542 8.60417 12.8542C8.01767 12.8542 7.54167 12.3782 7.54167 11.7917C7.54167 11.2052 8.01767 10.7292 8.60417 10.7292C9.19067 10.7292 9.66667 11.2052 9.66667 11.7917ZM17.4583 15.3333C17.4583 15.7243 17.141 16.0417 16.75 16.0417H11.7917C11.4007 16.0417 11.0833 15.7243 11.0833 15.3333C11.0833 14.9423 11.4007 14.625 11.7917 14.625H16.75C17.141 14.625 17.4583 14.9423 17.4583 15.3333ZM9.66667 15.3333C9.66667 15.9198 9.19067 16.3958 8.60417 16.3958C8.01767 16.3958 7.54167 15.9198 7.54167 15.3333C7.54167 14.7468 8.01767 14.2708 8.60417 14.2708C9.19067 14.2708 9.66667 14.7468 9.66667 15.3333Z" fill="white"/>
</svg>
