<svg width="24" height="24" viewBox="0 0 24 24" fill="none" xmlns="http://www.w3.org/2000/svg">
<path d="M12.5 3C7.81296 3 4 6.81296 4 11.5C4 16.187 7.81296 20 12.5 20C17.187 20 21 16.187 21 11.5C21 6.81296 17.187 3 12.5 3ZM9.66667 17.9912V17.875C9.66667 16.3124 10.9374 15.0417 12.5 15.0417C14.0626 15.0417 15.3333 16.3124 15.3333 17.875V17.9912C14.4649 18.3715 13.5072 18.5833 12.5 18.5833C11.4927 18.5833 10.5351 18.3715 9.66667 17.9912ZM16.6969 17.2028C16.3739 15.1777 14.6151 13.625 12.5 13.625C10.3849 13.625 8.62683 15.1777 8.30312 17.2028C6.55354 15.9115 5.41667 13.8361 5.41667 11.5C5.41667 7.59425 8.59425 4.41667 12.5 4.41667C16.4057 4.41667 19.5833 7.59425 19.5833 11.5C19.5833 13.8361 18.4465 15.9115 16.6969 17.2028ZM12.5 6.54167C10.9374 6.54167 9.66667 7.81242 9.66667 9.375C9.66667 10.9376 10.9374 12.2083 12.5 12.2083C14.0626 12.2083 15.3333 10.9376 15.3333 9.375C15.3333 7.81242 14.0626 6.54167 12.5 6.54167ZM12.5 10.7917C11.7187 10.7917 11.0833 10.1563 11.0833 9.375C11.0833 8.59371 11.7187 7.95833 12.5 7.95833C13.2813 7.95833 13.9167 8.59371 13.9167 9.375C13.9167 10.1563 13.2813 10.7917 12.5 10.7917Z" fill="white"/>
</svg>
